name Walk8.mot
datacolumns 19
datarows 22
range 1.35100000 1.37200000
endheader

                time	   L_ground_force_vx	   L_ground_force_vy	   L_ground_force_vz	   L_ground_force_px	   L_ground_force_py	   L_ground_force_pz	   R_ground_force_vx	   R_ground_force_vy	   R_ground_force_vz	   R_ground_force_px	   R_ground_force_py	   R_ground_force_pz	   L_ground_torque_x	   L_ground_torque_y	   L_ground_torque_z	   R_ground_torque_x	   R_ground_torque_y	   R_ground_torque_z	
          1.35100000	          0.00000000	          0.00000000	          0.00000000	          0.00000000	          0.00000000	          0.00000000	          0.00000000	          0.00000000	          0.00000000	          0.00000000	          0.00000000	          0.00000000	          0.00000000	          0.00000000	          0.00000000	          0.00000000	          0.00000000	          0.00000000	
          1.35200000	          0.00000000	          0.00000000	          0.00000000	          0.00000000	          0.00000000	          0.00000000	          0.00000000	          0.00000000	          0.00000000	          0.00000000	          0.00000000	          0.00000000	          0.00000000	          0.00000000	          0.00000000	          0.00000000	          0.00000000	          0.00000000	
          1.35300000	          0.00000000	          0.00000000	          0.00000000	          0.00000000	          0.00000000	          0.00000000	          0.00000000	          0.00000000	          0.00000000	          0.00000000	          0.00000000	          0.00000000	          0.00000000	          0.00000000	          0.00000000	          0.00000000	          0.00000000	          0.00000000	
          1.35400000	          0.00000000	          0.00000000	          0.00000000	          0.00000000	          0.00000000	          0.00000000	          0.00000000	          0.00000000	          0.00000000	          0.00000000	          0.00000000	          0.00000000	          0.00000000	          0.00000000	          0.00000000	          0.00000000	          0.00000000	          0.00000000	
          1.35500000	          0.00000000	          0.00000000	          0.00000000	          0.00000000	          0.00000000	          0.00000000	         -0.64064165	         11.20034964	         -1.63488479	         -0.45267098	          0.00000000	         -0.05233227	          0.00000000	          0.00000000	          0.00000000	          0.00000000	          0.02288170	          0.00000000	
          1.35600000	          0.00000000	          0.00000000	          0.00000000	          0.00000000	          0.00000000	          0.00000000	         -1.18764073	         32.91597159	         -2.51538747	         -0.44402095	          0.00000000	         -0.05285117	          0.00000000	          0.00000000	          0.00000000	          0.00000000	          0.01635496	          0.00000000	
          1.35700000	          0.00000000	          0.00000000	          0.00000000	          0.00000000	          0.00000000	          0.00000000	         -1.78165941	         66.77497071	         -3.30617212	         -0.44046364	          0.00000000	         -0.05279540	          0.00000000	          0.00000000	          0.00000000	          0.00000000	          0.01623126	          0.00000000	
          1.35800000	          0.00000000	          0.00000000	          0.00000000	          0.00000000	          0.00000000	          0.00000000	         -2.20092479	        112.97156033	         -3.85601206	         -0.43816207	          0.00000000	         -0.05247258	          0.00000000	          0.00000000	          0.00000000	          0.00000000	          0.02117906	          0.00000000	
          1.35900000	          0.00000000	          0.00000000	          0.00000000	          0.00000000	          0.00000000	          0.00000000	         -2.16422363	        168.90383121	         -4.23293022	         -0.43649746	          0.00000000	         -0.05202925	          0.00000000	          0.00000000	          0.00000000	          0.00000000	          0.02966221	          0.00000000	
          1.36000000	          0.00000000	          0.00000000	          0.00000000	          0.00000000	          0.00000000	          0.00000000	         -1.48440592	        228.57244115	         -4.75101457	         -0.43532090	          0.00000000	         -0.05158809	          0.00000000	          0.00000000	          0.00000000	          0.00000000	          0.03767522	          0.00000000	
          1.36100000	          0.00000000	          0.00000000	          0.00000000	          0.00000000	          0.00000000	          0.00000000	         -0.26499510	        283.93902812	         -5.84260749	         -0.43457286	          0.00000000	         -0.05119797	          0.00000000	          0.00000000	          0.00000000	          0.00000000	          0.03902335	          0.00000000	
          1.36200000	          0.00000000	          0.00000000	          0.00000000	          0.00000000	          0.00000000	          0.00000000	          1.04390100	        327.97456452	         -7.85076744	         -0.43418571	          0.00000000	         -0.05081539	          0.00000000	          0.00000000	          0.00000000	          0.00000000	          0.02615227	          0.00000000	
          1.36300000	          0.00000000	          0.00000000	          0.00000000	          0.00000000	          0.00000000	          0.00000000	          1.83471716	        357.28198839	        -10.88095332	         -0.43404307	          0.00000000	         -0.05037032	          0.00000000	          0.00000000	          0.00000000	          0.00000000	         -0.00350701	          0.00000000	
          1.36400000	          0.00000000	          0.00000000	          0.00000000	          0.00000000	          0.00000000	          0.00000000	          1.62622484	        372.64700947	        -14.78112157	         -0.43397924	          0.00000000	         -0.04986855	          0.00000000	          0.00000000	          0.00000000	          0.00000000	         -0.04076955	          0.00000000	
          1.36500000	          0.00000000	          0.00000000	          0.00000000	          0.00000000	          0.00000000	          0.00000000	          0.21901400	        377.71207943	        -19.21186323	         -0.43382663	          0.00000000	         -0.04941862	          0.00000000	          0.00000000	          0.00000000	          0.00000000	         -0.07062431	          0.00000000	
          1.36600000	          0.00000000	          0.00000000	          0.00000000	          0.00000000	          0.00000000	          0.00000000	         -2.32178172	        377.04950818	        -23.76083054	         -0.43349003	          0.00000000	         -0.04914033	          0.00000000	          0.00000000	          0.00000000	          0.00000000	         -0.08600339	          0.00000000	
          1.36700000	          0.00000000	          0.00000000	          0.00000000	          0.00000000	          0.00000000	          0.00000000	         -5.76950211	        374.71943474	        -28.07362884	         -0.43297585	          0.00000000	         -0.04906915	          0.00000000	          0.00000000	          0.00000000	          0.00000000	         -0.09024812	          0.00000000	
          1.36800000	          0.00000000	          0.00000000	          0.00000000	          0.00000000	          0.00000000	          0.00000000	         -9.85549290	        373.60685658	        -31.93811546	         -0.43234574	          0.00000000	         -0.04914260	          0.00000000	          0.00000000	          0.00000000	          0.00000000	         -0.08748260	          0.00000000	
          1.36900000	          0.00000000	          0.00000000	          0.00000000	          0.00000000	          0.00000000	          0.00000000	        -14.37021180	        375.27663689	        -35.28074332	         -0.43166480	          0.00000000	         -0.04921576	          0.00000000	          0.00000000	          0.00000000	          0.00000000	         -0.07583527	          0.00000000	
          1.37000000	          0.00000000	          0.00000000	          0.00000000	          0.00000000	          0.00000000	          0.00000000	        -19.21229002	        380.11103510	        -38.11986209	         -0.43099313	          0.00000000	         -0.04912756	          0.00000000	          0.00000000	          0.00000000	          0.00000000	         -0.04993762	          0.00000000	
          1.37100000	          0.00000000	          0.00000000	          0.00000000	          0.00000000	          0.00000000	          0.00000000	        -24.37601696	        387.64731438	        -40.52939601	         -0.43038665	          0.00000000	         -0.04881524	          0.00000000	          0.00000000	          0.00000000	          0.00000000	         -0.00683594	          0.00000000	
          1.37200000	          0.00000000	          0.00000000	          0.00000000	          0.00000000	          0.00000000	          0.00000000	        -29.90892322	        396.99035035	        -42.61959296	         -0.42988060	          0.00000000	         -0.04834040	          0.00000000	          0.00000000	          0.00000000	          0.00000000	          0.05324812	          0.00000000	
